<?xml version="1.0" standalone="no"?>
<!DOCTYPE svg PUBLIC "-//W3C//DTD SVG 20010904//EN"
 "http://www.w3.org/TR/2001/REC-SVG-20010904/DTD/svg10.dtd">
<svg version="1.0" xmlns="http://www.w3.org/2000/svg"
 width="335.000000pt" height="335.000000pt" viewBox="0 0 335.000000 335.000000"
 preserveAspectRatio="xMidYMid meet">
<metadata>
Created by potrace 1.14, written by Peter Selinger 2001-2017
</metadata>
<g transform="translate(0.000000,335.000000) scale(0.100000,-0.100000)"
fill="#000000" stroke="none">
<path d="M1659 3343 c0 -5 -1 -161 -2 -348 l-2 -340 303 0 c261 0 302 2 303
15 0 8 1 165 2 348 l2 332 -302 0 c-167 0 -303 -3 -304 -7z"/>
<path d="M1656 1542 c1 -299 -3 -560 -8 -580 -4 -20 -11 -45 -13 -56 -2 -10
-9 -23 -14 -30 -5 -6 -9 -13 -9 -16 2 -14 -15 -50 -23 -50 -6 0 -8 -4 -5 -9 3
-5 -5 -20 -19 -35 -13 -14 -21 -26 -17 -26 4 0 -13 -18 -37 -40 -44 -39 -111
-68 -181 -78 -89 -14 -311 7 -318 28 -2 6 -7 8 -12 5 -11 -7 -143 54 -153 72
-5 7 -12 11 -16 8 -5 -2 -20 6 -35 20 -14 13 -26 22 -26 19 0 -3 -20 11 -44
31 l-44 36 -35 -45 c-19 -25 -38 -42 -42 -38 -5 4 -5 2 -2 -4 3 -6 -4 -21 -16
-35 -12 -13 -53 -63 -91 -111 -38 -49 -73 -88 -78 -88 -4 0 -8 -6 -8 -13 0 -8
-11 -24 -25 -37 -13 -12 -36 -40 -51 -62 -24 -34 -25 -40 -11 -51 8 -6 30 -23
47 -37 18 -14 41 -33 51 -42 11 -10 22 -19 26 -19 5 -1 26 -14 48 -29 63 -43
216 -117 302 -146 43 -14 85 -28 93 -31 8 -3 32 -7 54 -9 21 -2 43 -7 49 -11
23 -14 342 -24 397 -12 19 4 53 10 75 13 22 3 55 10 73 15 18 5 36 10 40 11 4
1 22 8 41 16 18 8 37 11 42 8 5 -3 9 -1 9 4 0 5 15 16 33 23 27 11 65 34 155
94 36 24 158 155 195 210 22 33 44 62 49 63 4 2 6 7 3 12 -3 5 2 16 11 24 8 9
13 16 9 16 -6 0 24 59 35 70 3 3 6 12 8 20 1 8 11 36 22 61 11 25 24 68 30 95
7 27 14 58 17 69 2 11 7 45 9 75 3 30 8 62 11 70 8 21 9 1070 2 1082 -4 6
-116 11 -305 12 l-299 1 1 -543z"/>
<path d="M2393 479 c-13 -5 -23 -5 -23 -1 0 4 -5 -1 -11 -10 -5 -10 -17 -18
-26 -18 -9 0 -13 -3 -10 -6 4 -4 -3 -15 -15 -25 -11 -11 -18 -19 -15 -19 3 0
0 -15 -7 -32 -15 -40 -14 -135 2 -164 6 -12 8 -24 5 -28 -3 -3 -1 -6 6 -6 7 0
10 -3 8 -7 -2 -5 8 -19 21 -33 14 -14 21 -18 17 -10 -8 13 -7 13 9 0 34 -27
89 -31 133 -9 33 17 70 49 56 49 -4 0 -2 4 5 9 7 4 15 17 17 27 2 10 4 19 5
19 2 0 10 58 11 80 2 23 -9 72 -19 91 -6 12 -10 23 -8 25 1 2 -13 20 -33 39
-19 19 -31 28 -26 20 7 -12 6 -13 -6 -3 -20 16 -70 22 -96 12z m94 -88 c19
-28 22 -44 20 -109 -2 -48 -8 -77 -15 -80 -7 -2 -10 -7 -7 -12 8 -13 -38 -37
-68 -35 -32 2 -57 23 -62 51 -2 10 -4 19 -5 19 -2 0 -3 27 -5 60 -3 92 28 144
85 141 27 -1 40 -9 57 -35z"/>
<path d="M2639 473 c-1 -5 -2 -89 -3 -188 l-1 -181 35 2 35 1 0 174 c1 96 -1
180 -3 187 -4 13 -61 17 -63 5z"/>
<path d="M2779 473 c-1 -5 -2 -89 -3 -189 l-1 -181 23 2 c13 0 26 6 30 12 4 6
7 68 6 138 0 74 3 122 8 117 5 -5 10 -19 11 -31 1 -11 4 -21 8 -21 6 0 20 -38
18 -49 0 -2 4 -7 9 -10 6 -3 12 -13 14 -21 2 -8 9 -21 16 -28 7 -8 10 -18 7
-23 -4 -5 -2 -9 2 -9 8 0 36 -58 35 -71 -1 -4 30 -4 71 0 4 1 7 84 7 186 l0
185 -29 0 c-16 0 -31 -6 -33 -12 -7 -19 -2 -177 7 -220 5 -25 4 -38 -4 -38 -6
0 -8 7 -5 15 4 8 1 15 -6 15 -6 0 -8 5 -5 10 3 6 1 10 -5 10 -6 0 -8 5 -5 10
3 6 1 10 -5 10 -6 0 -8 5 -5 10 3 6 1 10 -5 10 -6 0 -8 5 -5 10 3 6 1 10 -5
10 -6 0 -9 4 -6 9 4 5 3 11 -1 13 -9 3 -53 89 -53 101 0 18 -30 37 -59 37 -17
0 -31 -3 -32 -7z"/>
</g>
</svg>
